<svg xmlns="http://www.w3.org/2000/svg" width="1120" height="1120" viewBox="0 0 1120 1120" version="1.1"><path d="M 572.397 172.062 C 525.703 203.996, 487.050 230.613, 486.500 231.211 C 485.355 232.456, 500.034 222.558, 575.500 171.200 L 629.500 134.450 630.152 406.475 C 630.571 581.238, 630.458 678.922, 629.836 679.681 C 629.304 680.331, 609.886 692.889, 586.684 707.588 C 563.483 722.286, 543.767 734.938, 542.870 735.702 C 541.974 736.467, 540.945 738.984, 540.583 741.296 C 540.221 743.608, 538.363 750.523, 536.455 756.663 C 532.702 768.737, 531.059 777.518, 532.671 776.885 C 533.210 776.673, 561.626 759.175, 595.818 738 L 657.985 699.500 657.992 406.750 C 657.997 245.738, 657.841 114, 657.647 114 C 657.452 114, 619.090 140.128, 572.397 172.062 M 731 222.579 C 731 230.005, 734.353 235.418, 744.275 244.010 C 748.249 247.450, 753.975 252.862, 757 256.036 C 762.165 261.454, 777.156 271.215, 828 302.262 C 836.958 307.732, 840.791 313.253, 844.147 325.518 L 846.331 333.500 847.319 562 C 848.032 726.779, 848.002 792.870, 847.214 799 C 845.083 815.566, 840.393 825.077, 831.680 830.500 C 826.802 833.537, 775.652 866.951, 735.719 893.189 C 596.801 984.464, 601.417 981.540, 600.561 978.773 C 600.344 978.073, 599.893 974.151, 599.559 970.059 C 599.224 965.966, 598.765 962.432, 598.538 962.205 C 598.311 961.978, 594.221 964.337, 589.449 967.448 C 584.677 970.558, 580.222 972.967, 579.549 972.801 C 578.876 972.636, 527.232 939.470, 464.784 899.101 L 351.244 825.701 350.584 692.101 C 350.222 618.620, 349.829 553.027, 349.712 546.337 L 349.500 534.174 426 484.282 L 502.500 434.389 504.249 429.171 C 505.765 424.649, 505.899 421.889, 505.249 408.486 L 504.500 393.020 414.641 454.966 C 365.219 489.036, 323.428 517.956, 321.772 519.233 L 318.761 521.555 319.909 655.527 C 320.541 729.212, 321.160 794.563, 321.286 800.750 C 321.411 806.938, 321.198 812, 320.811 812 C 320.424 812, 296.451 797.375, 267.538 779.500 C 238.625 761.625, 214.723 747, 214.421 747 C 214.120 747, 214.014 748.431, 214.187 750.180 C 214.445 752.798, 215.324 753.815, 219.158 755.930 C 221.720 757.344, 224.645 759.198, 225.658 760.052 C 228.118 762.124, 235.793 767, 236.596 767 C 236.947 767, 245.502 772.175, 255.606 778.500 C 265.711 784.825, 274.216 790, 274.505 790 C 274.795 790, 282.815 794.876, 292.327 800.836 C 301.840 806.795, 311.737 812.727, 314.321 814.018 C 320.066 816.887, 321.156 818.132, 323.505 824.500 C 326.007 831.286, 334.045 839.482, 346.420 847.868 C 351.964 851.624, 372.700 864.962, 392.500 877.508 C 439.371 907.206, 517.054 956.489, 537.994 969.810 C 554.433 980.267, 561.857 984.144, 571.673 987.396 C 574.518 988.338, 577.308 989.666, 577.873 990.347 C 578.581 991.200, 578.432 994.289, 577.393 1000.311 C 576.565 1005.111, 576.025 1010.942, 576.193 1013.269 C 576.453 1016.850, 576.827 1017.490, 578.632 1017.433 C 579.804 1017.397, 644.710 974.872, 722.868 922.933 L 864.973 828.500 864.985 600 C 864.992 474.325, 864.701 355.712, 864.340 336.414 L 863.682 301.329 798.151 259.414 C 762.109 236.362, 732.256 217.350, 731.810 217.167 C 731.365 216.983, 731 219.419, 731 222.579 M 473.616 239.490 C 470.929 241.348, 468.229 243.412, 467.616 244.075 C 467.002 244.739, 469.313 243.401, 472.750 241.103 C 476.188 238.806, 479 236.717, 479 236.463 C 479 235.776, 478.906 235.829, 473.616 239.490" stroke="none" fill="#29094e" fill-rule="evenodd"/><path d="M 626.500 136.353 C 623.655 138.530, 450.303 256.444, 383 301.983 C 365.675 313.705, 313.531 349.185, 267.125 380.826 L 182.749 438.356 183.385 589.928 C 183.734 673.293, 184.288 748.499, 184.615 757.054 L 185.210 772.608 379.701 894.054 C 486.671 960.849, 574.598 1015.650, 575.096 1015.833 C 575.593 1016.017, 576.016 1014.217, 576.035 1011.833 C 576.054 1009.450, 576.708 1003.920, 577.487 999.545 C 578.466 994.049, 578.586 991.207, 577.875 990.350 C 577.309 989.668, 574.518 988.338, 571.673 987.396 C 561.857 984.144, 554.433 980.267, 537.994 969.810 C 517.054 956.489, 439.371 907.206, 392.500 877.508 C 372.700 864.962, 351.964 851.624, 346.420 847.868 C 334.045 839.482, 326.007 831.286, 323.505 824.500 C 321.156 818.132, 320.066 816.887, 314.321 814.018 C 311.737 812.727, 301.840 806.795, 292.327 800.836 C 282.815 794.876, 274.795 790, 274.505 790 C 274.216 790, 265.711 784.825, 255.606 778.500 C 245.502 772.175, 236.947 767, 236.596 767 C 235.793 767, 228.118 762.124, 225.658 760.052 C 224.645 759.198, 221.720 757.344, 219.158 755.930 C 215.324 753.815, 214.445 752.798, 214.187 750.180 C 214.014 748.431, 214.120 747, 214.421 747 C 214.723 747, 238.625 761.625, 267.538 779.500 C 296.451 797.375, 320.424 812, 320.811 812 C 321.198 812, 321.411 806.938, 321.286 800.750 C 321.160 794.563, 320.541 729.212, 319.909 655.527 L 318.761 521.555 321.772 519.233 C 323.428 517.956, 365.219 489.036, 414.641 454.966 L 504.500 393.020 505.259 407.760 C 505.963 421.437, 505.555 426.697, 503.331 432.621 C 502.708 434.280, 502.823 434.339, 504.313 433.128 C 505.857 431.871, 506 432.215, 506 437.187 C 506 440.174, 507.139 490.291, 508.532 548.559 C 509.925 606.827, 511.423 677.815, 511.863 706.311 L 512.661 758.122 522.073 767.573 L 531.484 777.024 532.573 771.262 C 533.172 768.093, 535.068 761, 536.787 755.500 C 538.507 750, 540.212 743.608, 540.577 741.296 C 540.942 738.984, 541.974 736.467, 542.870 735.702 C 543.767 734.938, 563.483 722.286, 586.684 707.588 C 609.886 692.889, 629.304 680.331, 629.836 679.681 C 630.458 678.922, 630.571 581.168, 630.152 406.279 L 629.500 134.057 626.500 136.353 M 731.008 245.013 L 731.016 261.500 781.008 292.483 L 831 323.467 831 534.070 C 831 649.902, 831.282 759.484, 831.627 777.587 L 832.253 810.500 715.572 885.908 L 598.890 961.317 599.520 969.408 C 599.867 973.859, 600.331 978.073, 600.553 978.773 C 601.391 981.425, 601.318 981.471, 700.996 916 C 708.114 911.325, 723.739 901.060, 735.719 893.189 C 775.652 866.951, 826.802 833.537, 831.680 830.500 C 840.393 825.077, 845.083 815.566, 847.214 799 C 848.002 792.870, 848.032 726.779, 847.319 562 L 846.331 333.500 844.147 325.518 C 840.792 313.255, 836.958 307.733, 828 302.258 C 784.580 275.724, 760.334 260.050, 757.768 256.859 C 756.158 254.856, 750.994 249.916, 746.293 245.880 C 741.591 241.844, 736.227 236.289, 734.372 233.534 L 731 228.527 731.008 245.013" stroke="none" fill="#9e1aba" fill-rule="evenodd"/></svg>